<?xml version="1.0" encoding="UTF-8"?>
<svg id="Layer_2" data-name="Layer 2" xmlns="http://www.w3.org/2000/svg" version="1.1" viewBox="0 0 216.2 226.3">
  <defs>
    <style>
      .cls-1 {
        fill: #e5e5e5;
        stroke-width: 0px;
      }
    </style>
  </defs>
  <g id="Layer_1-2" data-name="Layer 1-2">
    <path class="cls-1" d="M143.4,105.3L213.2,27.8c4.2-4.6,4-11.7-.4-16.1l-8.3-8.3c-4.8-4.8-12.6-4.5-17.1.6l-70.5,80.5c-4.7,5.3-12.9,5.3-17.6,0L28.8,4c-4.5-5.1-12.3-5.3-17.1-.6L3.4,11.7c-4.4,4.4-4.6,11.5-.4,16.1l69.7,77.5c4,4.4,4,11.2,0,15.7L3,198.4c-4.2,4.6-4,11.7.4,16.1l8.3,8.3c4.8,4.8,12.6,4.5,17.1-.6l70.5-80.5c4.7-5.3,12.9-5.3,17.6,0l70.5,80.5c4.5,5.1,12.3,5.4,17.1.6l8.3-8.3c4.4-4.4,4.6-11.5.4-16.1l-69.7-77.5c-4-4.4-4-11.2,0-15.7h0Z"/>
  </g>
</svg>