<?xml version="1.0" encoding="UTF-8"?>
<svg id="Layer_2" data-name="Layer 2" xmlns="http://www.w3.org/2000/svg" viewBox="0 0 216.16 226.26">
  <defs>
    <style>
      .cls-1 {
        fill: #fff;
        stroke-width: 0px;
      }
    </style>
  </defs>
  <g id="Layer_1-2" data-name="Layer 1">
    <path class="cls-1" d="M143.43,105.31L213.16,27.83c4.16-4.62,3.98-11.7-.42-16.09l-8.31-8.31c-4.78-4.78-12.62-4.52-17.07.57l-70.47,80.53c-4.66,5.33-12.94,5.33-17.6,0L28.81,3.99c-4.46-5.09-12.29-5.35-17.07-.57L3.43,11.74c-4.4,4.4-4.58,11.47-.42,16.09l69.73,77.47c4,4.45,4,11.2,0,15.65L3,198.43c-4.16,4.62-3.98,11.7.42,16.09l8.31,8.31c4.78,4.78,12.62,4.52,17.07-.57l70.47-80.53c4.66-5.33,12.94-5.33,17.6,0l70.47,80.53c4.46,5.09,12.29,5.35,17.07.57l8.31-8.31c4.4-4.4,4.58-11.47.42-16.09l-69.73-77.47c-4-4.45-4-11.2,0-15.65Z"/>
  </g>
</svg>